<svg width="233" height="24" viewBox="0 0 233 24" fill="none" xmlns="http://www.w3.org/2000/svg">
<path d="M14 15.88V19H0.992V2.2H13.688V5.32H4.856V8.968H12.656V11.992H4.856V15.88H14ZM33.3656 5.896C34.9816 5.896 36.2616 6.376 37.2056 7.336C38.1656 8.28 38.6456 9.704 38.6456 11.608V19H34.9016V12.184C34.9016 11.16 34.6856 10.4 34.2536 9.904C33.8376 9.392 33.2376 9.136 32.4536 9.136C31.5736 9.136 30.8776 9.424 30.3656 10C29.8536 10.56 29.5976 11.4 29.5976 12.52V19H25.8536V12.184C25.8536 10.152 25.0376 9.136 23.4056 9.136C22.5416 9.136 21.8536 9.424 21.3416 10C20.8296 10.56 20.5736 11.4 20.5736 12.52V19H16.8296V6.088H20.4056V7.576C20.8856 7.032 21.4696 6.616 22.1576 6.328C22.8616 6.04 23.6296 5.896 24.4616 5.896C25.3736 5.896 26.1976 6.08 26.9336 6.448C27.6696 6.8 28.2616 7.32 28.7096 8.008C29.2376 7.336 29.9016 6.816 30.7016 6.448C31.5176 6.08 32.4056 5.896 33.3656 5.896ZM49.6334 5.896C50.8334 5.896 51.9214 6.176 52.8974 6.736C53.8894 7.28 54.6654 8.056 55.2254 9.064C55.7854 10.056 56.0654 11.216 56.0654 12.544C56.0654 13.872 55.7854 15.04 55.2254 16.048C54.6654 17.04 53.8894 17.816 52.8974 18.376C51.9214 18.92 50.8334 19.192 49.6334 19.192C47.9854 19.192 46.6894 18.672 45.7454 17.632V23.656H42.0014V6.088H45.5774V7.576C46.5054 6.456 47.8574 5.896 49.6334 5.896ZM48.9854 16.12C49.9454 16.12 50.7294 15.8 51.3374 15.16C51.9614 14.504 52.2734 13.632 52.2734 12.544C52.2734 11.456 51.9614 10.592 51.3374 9.952C50.7294 9.296 49.9454 8.968 48.9854 8.968C48.0254 8.968 47.2334 9.296 46.6094 9.952C46.0014 10.592 45.6974 11.456 45.6974 12.544C45.6974 13.632 46.0014 14.504 46.6094 15.16C47.2334 15.8 48.0254 16.12 48.9854 16.12ZM62.1478 7.792C62.5958 7.168 63.1958 6.696 63.9478 6.376C64.7158 6.056 65.5958 5.896 66.5878 5.896V9.352C66.1718 9.32 65.8918 9.304 65.7478 9.304C64.6758 9.304 63.8358 9.608 63.2278 10.216C62.6198 10.808 62.3158 11.704 62.3158 12.904V19H58.5718V6.088H62.1478V7.792ZM81.3448 12.592C81.3448 12.64 81.3208 12.976 81.2728 13.6H71.5048C71.6808 14.4 72.0968 15.032 72.7528 15.496C73.4088 15.96 74.2248 16.192 75.2008 16.192C75.8728 16.192 76.4648 16.096 76.9768 15.904C77.5048 15.696 77.9928 15.376 78.4408 14.944L80.4328 17.104C79.2168 18.496 77.4408 19.192 75.1048 19.192C73.6488 19.192 72.3608 18.912 71.2408 18.352C70.1208 17.776 69.2568 16.984 68.6488 15.976C68.0408 14.968 67.7368 13.824 67.7368 12.544C67.7368 11.28 68.0328 10.144 68.6248 9.136C69.2328 8.112 70.0568 7.32 71.0968 6.76C72.1528 6.184 73.3288 5.896 74.6248 5.896C75.8888 5.896 77.0328 6.168 78.0568 6.712C79.0808 7.256 79.8808 8.04 80.4568 9.064C81.0488 10.072 81.3448 11.248 81.3448 12.592ZM74.6488 8.728C73.8008 8.728 73.0888 8.968 72.5128 9.448C71.9368 9.928 71.5848 10.584 71.4568 11.416H77.8168C77.6888 10.6 77.3368 9.952 76.7608 9.472C76.1848 8.976 75.4808 8.728 74.6488 8.728ZM96.4854 12.592C96.4854 12.64 96.4614 12.976 96.4134 13.6H86.6454C86.8214 14.4 87.2374 15.032 87.8934 15.496C88.5494 15.96 89.3654 16.192 90.3414 16.192C91.0134 16.192 91.6054 16.096 92.1174 15.904C92.6454 15.696 93.1334 15.376 93.5814 14.944L95.5734 17.104C94.3574 18.496 92.5814 19.192 90.2454 19.192C88.7894 19.192 87.5014 18.912 86.3814 18.352C85.2614 17.776 84.3974 16.984 83.7894 15.976C83.1814 14.968 82.8774 13.824 82.8774 12.544C82.8774 11.28 83.1734 10.144 83.7654 9.136C84.3734 8.112 85.1974 7.32 86.2374 6.76C87.2934 6.184 88.4694 5.896 89.7654 5.896C91.0294 5.896 92.1734 6.168 93.1974 6.712C94.2214 7.256 95.0214 8.04 95.5974 9.064C96.1894 10.072 96.4854 11.248 96.4854 12.592ZM89.7894 8.728C88.9414 8.728 88.2294 8.968 87.6534 9.448C87.0774 9.928 86.7254 10.584 86.5974 11.416H92.9574C92.8294 10.6 92.4774 9.952 91.9014 9.472C91.3254 8.976 90.6214 8.728 89.7894 8.728ZM106.826 5.896C108.426 5.896 109.714 6.376 110.69 7.336C111.682 8.296 112.178 9.72 112.178 11.608V19H108.434V12.184C108.434 11.16 108.21 10.4 107.762 9.904C107.314 9.392 106.666 9.136 105.818 9.136C104.874 9.136 104.122 9.432 103.562 10.024C103.002 10.6 102.722 11.464 102.722 12.616V19H98.978V6.088H102.554V7.6C103.05 7.056 103.666 6.64 104.402 6.352C105.138 6.048 105.946 5.896 106.826 5.896ZM128.864 1.192V19H125.288V17.512C124.36 18.632 123.016 19.192 121.256 19.192C120.04 19.192 118.936 18.92 117.944 18.376C116.968 17.832 116.2 17.056 115.64 16.048C115.08 15.04 114.8 13.872 114.8 12.544C114.8 11.216 115.08 10.048 115.64 9.04C116.2 8.032 116.968 7.256 117.944 6.712C118.936 6.168 120.04 5.896 121.256 5.896C122.904 5.896 124.192 6.416 125.12 7.456V1.192H128.864ZM121.904 16.12C122.848 16.12 123.632 15.8 124.256 15.16C124.88 14.504 125.192 13.632 125.192 12.544C125.192 11.456 124.88 10.592 124.256 9.952C123.632 9.296 122.848 8.968 121.904 8.968C120.944 8.968 120.152 9.296 119.528 9.952C118.904 10.592 118.592 11.456 118.592 12.544C118.592 13.632 118.904 14.504 119.528 15.16C120.152 15.8 120.944 16.12 121.904 16.12ZM132.33 6.088H136.074V19H132.33V6.088ZM134.202 4.288C133.514 4.288 132.954 4.088 132.522 3.688C132.09 3.288 131.874 2.792 131.874 2.2C131.874 1.608 132.09 1.112 132.522 0.711999C132.954 0.311999 133.514 0.111999 134.202 0.111999C134.89 0.111999 135.45 0.303999 135.882 0.688C136.314 1.072 136.53 1.552 136.53 2.128C136.53 2.752 136.314 3.272 135.882 3.688C135.45 4.088 134.89 4.288 134.202 4.288ZM156.084 5.896C157.7 5.896 158.98 6.376 159.924 7.336C160.884 8.28 161.364 9.704 161.364 11.608V19H157.62V12.184C157.62 11.16 157.404 10.4 156.972 9.904C156.556 9.392 155.956 9.136 155.172 9.136C154.292 9.136 153.596 9.424 153.084 10C152.572 10.56 152.316 11.4 152.316 12.52V19H148.572V12.184C148.572 10.152 147.756 9.136 146.124 9.136C145.26 9.136 144.572 9.424 144.06 10C143.548 10.56 143.292 11.4 143.292 12.52V19H139.548V6.088H143.124V7.576C143.604 7.032 144.188 6.616 144.876 6.328C145.58 6.04 146.348 5.896 147.18 5.896C148.092 5.896 148.916 6.08 149.652 6.448C150.388 6.8 150.98 7.32 151.428 8.008C151.956 7.336 152.62 6.816 153.42 6.448C154.236 6.08 155.124 5.896 156.084 5.896ZM177.509 12.592C177.509 12.64 177.485 12.976 177.437 13.6H167.669C167.845 14.4 168.261 15.032 168.917 15.496C169.573 15.96 170.389 16.192 171.365 16.192C172.037 16.192 172.629 16.096 173.141 15.904C173.669 15.696 174.157 15.376 174.605 14.944L176.597 17.104C175.381 18.496 173.605 19.192 171.269 19.192C169.813 19.192 168.525 18.912 167.405 18.352C166.285 17.776 165.421 16.984 164.813 15.976C164.205 14.968 163.901 13.824 163.901 12.544C163.901 11.28 164.197 10.144 164.789 9.136C165.397 8.112 166.221 7.32 167.261 6.76C168.317 6.184 169.493 5.896 170.789 5.896C172.053 5.896 173.197 6.168 174.221 6.712C175.245 7.256 176.045 8.04 176.621 9.064C177.213 10.072 177.509 11.248 177.509 12.592ZM170.813 8.728C169.965 8.728 169.253 8.968 168.677 9.448C168.101 9.928 167.749 10.584 167.621 11.416H173.981C173.853 10.6 173.501 9.952 172.925 9.472C172.349 8.976 171.645 8.728 170.813 8.728ZM187.849 5.896C189.449 5.896 190.737 6.376 191.713 7.336C192.705 8.296 193.201 9.72 193.201 11.608V19H189.457V12.184C189.457 11.16 189.233 10.4 188.785 9.904C188.337 9.392 187.689 9.136 186.841 9.136C185.897 9.136 185.145 9.432 184.585 10.024C184.025 10.6 183.745 11.464 183.745 12.616V19H180.001V6.088H183.577V7.6C184.073 7.056 184.689 6.64 185.425 6.352C186.161 6.048 186.969 5.896 187.849 5.896ZM204.923 18.376C204.555 18.648 204.099 18.856 203.555 19C203.027 19.128 202.467 19.192 201.875 19.192C200.339 19.192 199.147 18.8 198.299 18.016C197.467 17.232 197.051 16.08 197.051 14.56V9.256H195.059V6.376H197.051V3.232H200.795V6.376H204.011V9.256H200.795V14.512C200.795 15.056 200.931 15.48 201.203 15.784C201.491 16.072 201.891 16.216 202.403 16.216C202.995 16.216 203.499 16.056 203.915 15.736L204.923 18.376ZM212.77 19.192C211.41 19.192 210.186 18.912 209.098 18.352C208.026 17.776 207.186 16.984 206.578 15.976C205.97 14.968 205.666 13.824 205.666 12.544C205.666 11.264 205.97 10.12 206.578 9.112C207.186 8.104 208.026 7.32 209.098 6.76C210.186 6.184 211.41 5.896 212.77 5.896C214.13 5.896 215.346 6.184 216.418 6.76C217.49 7.32 218.33 8.104 218.938 9.112C219.546 10.12 219.85 11.264 219.85 12.544C219.85 13.824 219.546 14.968 218.938 15.976C218.33 16.984 217.49 17.776 216.418 18.352C215.346 18.912 214.13 19.192 212.77 19.192ZM212.77 16.12C213.73 16.12 214.514 15.8 215.122 15.16C215.746 14.504 216.058 13.632 216.058 12.544C216.058 11.456 215.746 10.592 215.122 9.952C214.514 9.296 213.73 8.968 212.77 8.968C211.81 8.968 211.018 9.296 210.394 9.952C209.77 10.592 209.458 11.456 209.458 12.544C209.458 13.632 209.77 14.504 210.394 15.16C211.018 15.8 211.81 16.12 212.77 16.12ZM226.697 19.192C225.625 19.192 224.577 19.064 223.553 18.808C222.529 18.536 221.713 18.2 221.105 17.8L222.353 15.112C222.929 15.48 223.625 15.784 224.441 16.024C225.257 16.248 226.057 16.36 226.841 16.36C228.425 16.36 229.217 15.968 229.217 15.184C229.217 14.816 229.001 14.552 228.569 14.392C228.137 14.232 227.473 14.096 226.577 13.984C225.521 13.824 224.649 13.64 223.961 13.432C223.273 13.224 222.673 12.856 222.161 12.328C221.665 11.8 221.417 11.048 221.417 10.072C221.417 9.256 221.649 8.536 222.113 7.912C222.593 7.272 223.281 6.776 224.177 6.424C225.089 6.072 226.161 5.896 227.393 5.896C228.305 5.896 229.209 6 230.105 6.208C231.017 6.4 231.769 6.672 232.361 7.024L231.113 9.688C229.977 9.048 228.737 8.728 227.393 8.728C226.593 8.728 225.993 8.84 225.593 9.064C225.193 9.288 224.993 9.576 224.993 9.928C224.993 10.328 225.209 10.608 225.641 10.768C226.073 10.928 226.761 11.08 227.705 11.224C228.761 11.4 229.625 11.592 230.297 11.8C230.969 11.992 231.553 12.352 232.049 12.88C232.545 13.408 232.793 14.144 232.793 15.088C232.793 15.888 232.553 16.6 232.073 17.224C231.593 17.848 230.889 18.336 229.961 18.688C229.049 19.024 227.961 19.192 226.697 19.192Z" fill="#4F46BB"/>
</svg>
